
<svg xmlns="http://www.w3.org/2000/svg" xml:space="preserve" width="144px" height="60px" version="1.1" style="shape-rendering:geometricPrecision; text-rendering:geometricPrecision; image-rendering:optimizeQuality; fill-rule:evenodd; clip-rule:evenodd"
viewBox="0 0 8.56 3.57"
 xmlns:xlink="http://www.w3.org/1999/xlink">
 <defs>
  <style type="text/css">
   <![CDATA[
    .fil2 {fill:none}
    .fil0 {fill:#F15F56;fill-rule:nonzero}
    .fil1 {fill:#2E3649;fill-rule:nonzero}
   ]]>
  </style>
 </defs>
 <g id="Layer_x0020_1">
  <metadata id="CorelCorpID_0Corel-Layer"/>
  <g id="_2781397434928">
   <path class="fil0" d="M0.35 1.49l0.1 0c0,0 0.01,0 0.01,0 0.02,0 0.03,-0.02 0.03,-0.04 0,-0.01 0,-0.01 0,-0.02 0,-0.11 0.13,-0.36 0.39,-0.73 0,0 0,0 0,0 0.05,0.08 0.1,0.14 0.15,0.22 0,0.01 0,0.01 0.01,0.02 0.02,0.01 0.04,0.01 0.05,-0.01l0.07 -0.06c0.02,-0.01 0.02,-0.03 0.01,-0.05 -0.11,-0.18 -0.21,-0.32 -0.24,-0.36 0,0 -0.01,-0.01 -0.01,-0.01 -0.03,-0.02 -0.07,-0.02 -0.09,0.01 0,0 0,0.01 -0.01,0.02 -0.05,0.07 -0.18,0.24 -0.29,0.43 -0.15,0.23 -0.22,0.41 -0.22,0.52 0,0.01 0,0.02 0,0.02 0,0.03 0.02,0.04 0.04,0.04z"/>
   <path class="fil1" d="M1.52 0.99l-0.14 -0.17c-0.02,-0.02 -0.05,-0.02 -0.06,-0.01l-0.02 0.02c-0.02,0.01 -0.03,0.04 -0.01,0.06l0.02 0.03 0 0c0,0 0,0 0,0 -0.04,-0.01 -0.09,0 -0.12,0.03l-0.37 0.32c0,0 0,0 0,0 -0.01,-0.01 -0.03,-0.01 -0.04,-0.01 -0.01,0 -0.03,0.01 -0.04,0.02l-0.03 0.02c-0.01,0.01 -0.02,0.02 -0.02,0.04 0,0.02 0,0.04 0.01,0.05l0.15 0.18c0.03,0.02 0.07,0.03 0.09,0l0.04 -0.02c0.02,-0.02 0.02,-0.05 0.01,-0.08 0,0 0,0 0,0l0.19 -0.16c0,0 0,0 0,0 0.08,0.16 0.1,0.24 0.1,0.28 0,0.21 -0.18,0.39 -0.39,0.39 -0.15,0 -0.27,-0.06 -0.33,-0.15 0,0 0,0 0,0l0.39 0c0.03,0 0.06,-0.03 0.06,-0.07l0 -0.06c0,-0.04 -0.03,-0.07 -0.06,-0.07l-0.62 0c-0.03,0 -0.07,0.03 -0.07,0.07l0 0.06c0,0.04 0.04,0.07 0.07,0.07l0.03 0c0,0 0,0 0,0 0.08,0.2 0.28,0.33 0.53,0.33 0.31,0 0.57,-0.26 0.57,-0.57 0,-0.1 -0.05,-0.22 -0.14,-0.4 0,0 0,0 0,0l0.04 -0.03c0.03,-0.02 0.04,-0.05 0.05,-0.08 0,-0.01 0,-0.03 0,-0.04 0,0 0,0 0,-0.01l0 0 0.03 0.03c0.01,0.02 0.04,0.02 0.06,0.01l0.02 -0.02c0.02,-0.02 0.02,-0.04 0,-0.06z"/>
   <polygon class="fil1" points="2.03,1.64 2.13,1.64 2.13,1.07 2.02,1.07 2.02,1.19 1.83,1.19 1.83,0.92 2.63,0.92 2.63,1.19 2.44,1.19 2.44,1.07 2.32,1.07 2.32,1.64 2.41,1.64 2.41,1.8 2.03,1.8 "/>
   <path class="fil1" d="M2.68 0.89l0.28 0 0 0.36c0.02,-0.02 0.05,-0.03 0.07,-0.05 0.03,-0.01 0.06,-0.01 0.09,-0.01 0.08,0 0.13,0.02 0.17,0.06 0.04,0.04 0.06,0.1 0.06,0.18l0 0.21 0.09 0 0 0.16 -0.27 0 0 -0.33c0,-0.04 -0.01,-0.06 -0.03,-0.08 -0.02,-0.02 -0.04,-0.03 -0.06,-0.03 -0.02,0 -0.04,0 -0.06,0.01 -0.02,0.01 -0.04,0.03 -0.06,0.04l0 0.23 0.09 0 0 0.16 -0.37 0 0 -0.16 0.1 0 0 -0.59 -0.1 0 0 -0.16z"/>
   <polygon class="fil1" points="3.49,1.2 3.79,1.2 3.79,1.36 3.74,1.36 3.83,1.58 3.92,1.36 3.86,1.36 3.86,1.2 4.16,1.2 4.16,1.36 4.09,1.36 3.86,1.92 3.96,1.92 3.96,2.08 3.59,2.08 3.59,1.92 3.69,1.92 3.74,1.8 3.55,1.36 3.49,1.36 "/>
   <path class="fil1" d="M4.78 1.42l-0.16 0 0 -0.06c-0.02,0 -0.03,0 -0.05,0 -0.01,0 -0.02,0 -0.03,0.01 -0.01,0 -0.02,0.01 -0.03,0.02 0,0.01 -0.01,0.02 -0.01,0.03l0 0.22 0.12 0 0 0.16 -0.39 0 0 -0.16 0.09 0 0 -0.28 -0.09 0 0 -0.16 0.27 0 0 0.04c0.01,-0.01 0.03,-0.02 0.05,-0.03 0.03,-0.01 0.05,-0.01 0.07,-0.01 0.03,0 0.06,0 0.08,0 0.03,0 0.06,0 0.08,0l0 0.22z"/>
   <path class="fil1" d="M5.05 1.5c0,0.02 0,0.04 0.01,0.06 0.01,0.02 0.02,0.04 0.03,0.05 0.02,0.01 0.03,0.03 0.05,0.03 0.02,0.01 0.04,0.02 0.06,0.02 0.02,0 0.04,-0.01 0.05,-0.02 0.02,0 0.04,-0.01 0.05,-0.03 0.01,-0.01 0.02,-0.03 0.03,-0.05 0.01,-0.02 0.01,-0.04 0.01,-0.06 0,-0.03 0,-0.05 -0.01,-0.07 -0.01,-0.02 -0.02,-0.03 -0.03,-0.05 -0.01,-0.01 -0.03,-0.02 -0.05,-0.03 -0.01,-0.01 -0.03,-0.01 -0.05,-0.01 -0.02,0 -0.04,0 -0.06,0.01 -0.02,0.01 -0.03,0.02 -0.05,0.03 -0.01,0.02 -0.02,0.03 -0.03,0.05 -0.01,0.02 -0.01,0.04 -0.01,0.07zm-0.18 0c0,-0.05 0.01,-0.09 0.03,-0.13 0.01,-0.03 0.04,-0.07 0.06,-0.1 0.03,-0.03 0.07,-0.05 0.11,-0.07 0.04,-0.01 0.08,-0.02 0.13,-0.02 0.04,0 0.09,0.01 0.13,0.02 0.04,0.02 0.07,0.04 0.1,0.07 0.03,0.03 0.05,0.07 0.06,0.1 0.02,0.04 0.03,0.08 0.03,0.13 0,0.04 -0.01,0.08 -0.03,0.12 -0.01,0.04 -0.03,0.07 -0.06,0.1 -0.03,0.03 -0.06,0.06 -0.1,0.07 -0.04,0.02 -0.09,0.03 -0.13,0.03 -0.05,0 -0.1,-0.01 -0.14,-0.03 -0.04,-0.01 -0.07,-0.04 -0.1,-0.07 -0.03,-0.03 -0.05,-0.06 -0.06,-0.1 -0.02,-0.04 -0.03,-0.08 -0.03,-0.12z"/>
   <path class="fil0" d="M6.06 1.41c-0.02,-0.02 -0.04,-0.04 -0.06,-0.05 -0.02,-0.01 -0.04,-0.02 -0.07,-0.01 -0.02,-0.01 -0.04,0 -0.06,0 -0.02,0.01 -0.04,0.02 -0.05,0.04 -0.01,0.01 -0.02,0.03 -0.03,0.05 -0.01,0.02 -0.01,0.04 -0.01,0.06 0,0.02 0,0.04 0.01,0.06 0.01,0.02 0.02,0.04 0.03,0.05 0.02,0.02 0.03,0.03 0.05,0.03 0.02,0.01 0.04,0.02 0.06,0.02 0.02,0 0.03,-0.01 0.05,-0.01 0.01,-0.01 0.03,-0.02 0.04,-0.03 0.01,-0.01 0.02,-0.02 0.03,-0.03 0.01,-0.01 0.01,-0.02 0.02,-0.03l0.16 0.04c-0.01,0.03 -0.02,0.05 -0.03,0.08 -0.02,0.02 -0.04,0.04 -0.07,0.06 -0.02,0.03 -0.05,0.04 -0.09,0.06 -0.04,0.01 -0.08,0.02 -0.12,0.02 -0.05,0 -0.09,-0.01 -0.13,-0.03 -0.04,-0.02 -0.07,-0.04 -0.1,-0.07 -0.03,-0.03 -0.05,-0.06 -0.07,-0.1 -0.01,-0.04 -0.02,-0.08 -0.02,-0.13 0,-0.04 0.01,-0.08 0.03,-0.12 0.01,-0.04 0.03,-0.07 0.06,-0.1 0.03,-0.03 0.06,-0.05 0.1,-0.07 0.04,-0.01 0.09,-0.02 0.13,-0.02 0.03,0 0.07,0 0.1,0.01 0.03,0.01 0.06,0.02 0.08,0.04l0.12 0 0 0.18 -0.16 0z"/>
   <path class="fil0" d="M6.53 1.68c0.03,0 0.06,-0.01 0.08,-0.01 0.02,-0.01 0.04,-0.02 0.06,-0.04l0 -0.07 -0.14 0c-0.01,0 -0.02,0 -0.03,0 -0.01,0 -0.02,0.01 -0.02,0.01 -0.01,0.01 -0.02,0.01 -0.02,0.02 0,0.01 -0.01,0.02 -0.01,0.03 0,0.01 0.01,0.03 0.02,0.04 0.02,0.01 0.04,0.02 0.06,0.02zm0.14 0.09c-0.02,0.01 -0.03,0.02 -0.04,0.02 -0.01,0.01 -0.02,0.01 -0.03,0.02 -0.02,0 -0.03,0 -0.04,0 -0.01,0.01 -0.02,0.01 -0.04,0.01 -0.04,0 -0.07,-0.01 -0.1,-0.02 -0.03,-0.01 -0.05,-0.02 -0.07,-0.04 -0.02,-0.02 -0.03,-0.04 -0.04,-0.06 -0.01,-0.02 -0.02,-0.05 -0.02,-0.08 0,-0.02 0.01,-0.05 0.02,-0.07 0.01,-0.03 0.02,-0.05 0.04,-0.07 0.02,-0.01 0.05,-0.03 0.08,-0.04 0.03,0 0.06,-0.01 0.1,-0.01 0.03,0 0.05,0 0.07,0 0.03,0.01 0.05,0.01 0.07,0.02l0 -0.02c0,-0.02 -0.01,-0.03 -0.01,-0.04 -0.01,-0.01 -0.02,-0.02 -0.03,-0.03 -0.01,-0.01 -0.02,-0.01 -0.03,-0.02 -0.02,0 -0.04,0 -0.05,0 -0.04,0 -0.07,0 -0.1,0.01 -0.03,0.01 -0.05,0.02 -0.08,0.03l-0.06 -0.11c0.04,-0.03 0.09,-0.05 0.13,-0.06 0.04,-0.02 0.09,-0.03 0.14,-0.03 0.03,0 0.07,0.01 0.1,0.02 0.03,0.01 0.06,0.02 0.08,0.04 0.03,0.02 0.05,0.04 0.06,0.07 0.01,0.03 0.02,0.07 0.02,0.11l0 0.22 0.08 0 0 0.16 -0.25 0 0 -0.03z"/>
   <path class="fil0" d="M7.59 1.42l-0.16 0 0 -0.06c-0.02,0 -0.03,0 -0.05,0 -0.01,0 -0.02,0 -0.03,0.01 -0.01,0 -0.02,0.01 -0.03,0.02 0,0.01 -0.01,0.02 -0.01,0.03l0 0.22 0.12 0 0 0.16 -0.39 0 0 -0.16 0.09 0 0 -0.28 -0.09 0 0 -0.16 0.27 0 0 0.04c0.01,-0.01 0.03,-0.02 0.06,-0.03 0.02,-0.01 0.04,-0.01 0.07,-0.01 0.02,0 0.05,0 0.07,0 0.03,0 0.06,0 0.08,0l0 0.22z"/>
   <path class="fil0" d="M7.99 1.32c-0.03,0 -0.04,0 -0.06,0.01 -0.01,0 -0.03,0.01 -0.04,0.02 -0.01,0.01 -0.02,0.02 -0.02,0.03 -0.01,0.01 -0.01,0.02 -0.02,0.03l0.25 0c0,-0.01 0,-0.02 -0.01,-0.03 0,-0.01 -0.01,-0.02 -0.02,-0.03 -0.01,-0.01 -0.02,-0.02 -0.03,-0.02 -0.02,-0.01 -0.03,-0.01 -0.05,-0.01zm-0.14 0.22l0 0.02c0,0.01 0.01,0.03 0.02,0.04 0.01,0.02 0.02,0.03 0.04,0.04 0.01,0 0.03,0.01 0.04,0.02 0.02,0 0.04,0 0.06,0 0.01,0 0.03,0 0.05,0 0.01,0 0.03,-0.01 0.04,-0.01 0.02,0 0.03,-0.01 0.04,-0.01 0.02,-0.01 0.03,-0.01 0.05,-0.02l0.06 0.12c-0.02,0.02 -0.04,0.03 -0.06,0.04 -0.02,0.01 -0.04,0.01 -0.06,0.02 -0.01,0.01 -0.03,0.01 -0.05,0.01 -0.03,0.01 -0.05,0.01 -0.08,0.01 -0.05,0 -0.1,-0.01 -0.14,-0.03 -0.04,-0.02 -0.07,-0.04 -0.1,-0.07 -0.03,-0.03 -0.05,-0.06 -0.07,-0.1 -0.01,-0.04 -0.02,-0.08 -0.02,-0.13 0,-0.04 0.01,-0.08 0.03,-0.12 0.01,-0.04 0.03,-0.08 0.06,-0.1 0.03,-0.03 0.06,-0.06 0.1,-0.07 0.04,-0.02 0.08,-0.03 0.13,-0.03 0.05,0 0.09,0.01 0.13,0.03 0.03,0.01 0.07,0.03 0.09,0.06 0.03,0.03 0.05,0.06 0.06,0.1 0.01,0.04 0.02,0.08 0.02,0.12 0,0.01 0,0.02 0,0.03 0,0.01 0,0.02 0,0.03l-0.44 0z"/>
   <polygon class="fil1" points="2.11,2.95 2.11,2.63 1.99,2.63 1.99,2.57 2.31,2.57 2.31,2.63 2.18,2.63 2.18,2.95 "/>
   <path class="fil1" d="M2.46 2.95c-0.03,0 -0.06,-0.01 -0.08,-0.02 -0.03,-0.01 -0.05,-0.03 -0.06,-0.05 -0.01,-0.02 -0.02,-0.05 -0.02,-0.08 0,-0.03 0.01,-0.05 0.02,-0.08 0.01,-0.02 0.03,-0.04 0.05,-0.05 0.03,-0.01 0.05,-0.02 0.08,-0.02 0.03,0 0.05,0.01 0.08,0.02 0.02,0.01 0.04,0.03 0.05,0.05 0.01,0.03 0.02,0.05 0.02,0.08 0,0.01 0,0.01 0,0.01 0,0.01 0,0.01 0,0.01l-0.24 0 0 -0.04 0.2 0 -0.03 0.01c0,-0.01 0,-0.03 -0.01,-0.04 0,-0.01 -0.01,-0.02 -0.03,-0.03 -0.01,-0.01 -0.02,-0.01 -0.04,-0.01 -0.01,0 -0.03,0 -0.04,0.01 -0.02,0.01 -0.03,0.02 -0.03,0.03 -0.01,0.01 -0.01,0.03 -0.01,0.04l0 0.01c0,0.02 0,0.04 0.01,0.05 0.01,0.01 0.02,0.02 0.03,0.03 0.02,0.01 0.03,0.01 0.05,0.01 0.02,0 0.03,0 0.05,-0.01 0.01,0 0.02,-0.01 0.03,-0.02l0.04 0.04c-0.01,0.02 -0.03,0.03 -0.05,0.04 -0.02,0.01 -0.04,0.01 -0.07,0.01z"/>
   <path class="fil1" d="M2.75 2.95c-0.02,0 -0.04,0 -0.07,-0.01 -0.02,-0.01 -0.04,-0.01 -0.05,-0.02l0.03 -0.05c0.01,0 0.02,0.01 0.04,0.02 0.02,0 0.04,0 0.06,0 0.02,0 0.03,0 0.04,0 0.01,-0.01 0.02,-0.02 0.02,-0.03 0,-0.01 -0.01,-0.01 -0.01,-0.02 -0.01,0 -0.02,0 -0.03,-0.01 -0.01,0 -0.02,0 -0.03,0 -0.02,0 -0.03,-0.01 -0.04,-0.01 -0.01,0 -0.03,-0.01 -0.04,-0.01 -0.01,-0.01 -0.01,-0.02 -0.02,-0.03 -0.01,-0.01 -0.01,-0.02 -0.01,-0.04 0,-0.02 0,-0.03 0.01,-0.04 0.02,-0.02 0.03,-0.03 0.05,-0.04 0.02,0 0.04,-0.01 0.07,-0.01 0.02,0 0.04,0 0.06,0.01 0.02,0 0.03,0.01 0.05,0.02l-0.03 0.05c-0.01,-0.01 -0.03,-0.01 -0.04,-0.02 -0.02,0 -0.03,0 -0.04,0 -0.02,0 -0.04,0 -0.05,0.01 -0.01,0 -0.01,0.01 -0.01,0.02 0,0.01 0,0.02 0,0.02 0.01,0 0.02,0.01 0.03,0.01 0.01,0 0.02,0 0.04,0.01 0.01,0 0.02,0 0.03,0 0.02,0.01 0.03,0.01 0.04,0.02 0.01,0 0.02,0.01 0.02,0.02 0.01,0.01 0.01,0.02 0.01,0.04 0,0.02 0,0.03 -0.01,0.05 -0.01,0.01 -0.03,0.02 -0.05,0.03 -0.02,0.01 -0.04,0.01 -0.07,0.01z"/>
   <path class="fil1" d="M3.05 2.95c-0.03,0 -0.05,-0.01 -0.07,-0.02 -0.02,-0.02 -0.03,-0.05 -0.03,-0.08l0 -0.26 0.07 0 0 0.26c0,0.01 0,0.03 0.01,0.03 0.01,0.01 0.02,0.01 0.03,0.01 0.02,0 0.03,0 0.04,-0.01l0.02 0.05c-0.01,0.01 -0.02,0.01 -0.03,0.02 -0.01,0 -0.03,0 -0.04,0zm-0.15 -0.24l0 -0.05 0.2 0 0 0.05 -0.2 0z"/>
   <path class="fil1" d="M3.26 2.95c-0.02,0 -0.04,0 -0.07,-0.01 -0.02,-0.01 -0.04,-0.01 -0.05,-0.02l0.03 -0.05c0.01,0 0.03,0.01 0.04,0.02 0.02,0 0.04,0 0.06,0 0.02,0 0.03,0 0.04,0 0.01,-0.01 0.02,-0.02 0.02,-0.03 0,-0.01 0,-0.01 -0.01,-0.02 -0.01,0 -0.02,0 -0.03,-0.01 -0.01,0 -0.02,0 -0.03,0 -0.01,0 -0.03,-0.01 -0.04,-0.01 -0.01,0 -0.03,-0.01 -0.04,-0.01 -0.01,-0.01 -0.01,-0.02 -0.02,-0.03 -0.01,-0.01 -0.01,-0.02 -0.01,-0.04 0,-0.02 0,-0.03 0.01,-0.04 0.02,-0.02 0.03,-0.03 0.05,-0.04 0.02,0 0.04,-0.01 0.07,-0.01 0.02,0 0.04,0 0.06,0.01 0.02,0 0.03,0.01 0.05,0.02l-0.03 0.05c-0.01,-0.01 -0.03,-0.01 -0.04,-0.02 -0.02,0 -0.03,0 -0.04,0 -0.02,0 -0.04,0 -0.05,0.01 -0.01,0 -0.01,0.01 -0.01,0.02 0,0.01 0,0.02 0.01,0.02 0,0 0.01,0.01 0.02,0.01 0.01,0 0.02,0 0.04,0.01 0.01,0 0.02,0 0.03,0 0.02,0.01 0.03,0.01 0.04,0.02 0.01,0 0.02,0.01 0.02,0.02 0.01,0.01 0.01,0.02 0.01,0.04 0,0.02 0,0.03 -0.01,0.05 -0.01,0.01 -0.03,0.02 -0.05,0.03 -0.02,0.01 -0.04,0.01 -0.07,0.01z"/>
   <path class="fil1" d="M3.69 2.96l-0.13 -0.3 0.07 0 0.1 0.25 -0.04 0.05zm-0.06 0.1c-0.02,0 -0.03,-0.01 -0.05,-0.01 -0.01,-0.01 -0.02,-0.01 -0.03,-0.02l0.03 -0.05c0,0.01 0.01,0.01 0.02,0.01 0.01,0.01 0.02,0.01 0.03,0.01 0.01,0 0.02,0 0.03,-0.01 0,-0.01 0.01,-0.02 0.02,-0.03l0.01 -0.04 0.01 -0.01 0.11 -0.25 0.06 0 -0.13 0.31c-0.01,0.02 -0.02,0.04 -0.03,0.05 -0.01,0.01 -0.02,0.02 -0.04,0.03 -0.01,0 -0.03,0.01 -0.04,0.01z"/>
   <path class="fil1" d="M4.04 2.89c0.02,0 0.03,0 0.04,-0.01 0.02,-0.01 0.03,-0.02 0.03,-0.03 0.01,-0.01 0.02,-0.03 0.02,-0.05 0,-0.02 -0.01,-0.03 -0.02,-0.05 0,-0.01 -0.01,-0.02 -0.03,-0.03 -0.01,-0.01 -0.02,-0.01 -0.04,-0.01 -0.02,0 -0.03,0 -0.04,0.01 -0.02,0.01 -0.03,0.02 -0.03,0.03 -0.01,0.02 -0.02,0.03 -0.02,0.05 0,0.02 0.01,0.04 0.02,0.05 0,0.01 0.01,0.02 0.03,0.03 0.01,0.01 0.02,0.01 0.04,0.01zm0 0.06c-0.03,0 -0.06,-0.01 -0.08,-0.02 -0.02,-0.01 -0.04,-0.03 -0.05,-0.05 -0.02,-0.02 -0.02,-0.05 -0.02,-0.08 0,-0.03 0,-0.05 0.02,-0.08 0.01,-0.02 0.03,-0.04 0.05,-0.05 0.02,-0.01 0.05,-0.02 0.08,-0.02 0.03,0 0.06,0.01 0.08,0.02 0.02,0.01 0.04,0.03 0.05,0.05 0.02,0.03 0.02,0.05 0.02,0.08 0,0.03 0,0.06 -0.02,0.08 -0.01,0.02 -0.03,0.04 -0.05,0.05 -0.02,0.01 -0.05,0.02 -0.08,0.02z"/>
   <path class="fil1" d="M4.38 2.95c-0.02,0 -0.04,0 -0.06,-0.01 -0.02,-0.01 -0.04,-0.03 -0.05,-0.05 -0.01,-0.02 -0.01,-0.04 -0.01,-0.07l0 -0.16 0.07 0 0 0.15c0,0.03 0,0.05 0.01,0.06 0.02,0.01 0.03,0.02 0.05,0.02 0.02,0 0.03,0 0.05,-0.01 0.01,-0.01 0.02,-0.02 0.02,-0.03 0.01,-0.01 0.01,-0.03 0.01,-0.05l0 -0.14 0.07 0 0 0.29 -0.06 0 0 -0.08 0.01 0.02c-0.01,0.02 -0.03,0.03 -0.05,0.04 -0.01,0.01 -0.04,0.02 -0.06,0.02z"/>
   <path class="fil1" d="M4.91 2.95c-0.03,0 -0.05,-0.01 -0.08,-0.02 -0.02,-0.01 -0.04,-0.03 -0.05,-0.05 -0.02,-0.02 -0.02,-0.05 -0.02,-0.08 0,-0.03 0,-0.05 0.02,-0.08 0.01,-0.02 0.03,-0.04 0.05,-0.05 0.03,-0.01 0.05,-0.02 0.08,-0.02 0.03,0 0.06,0.01 0.08,0.02 0.02,0.01 0.04,0.03 0.05,0.05l-0.06 0.03c0,-0.01 -0.02,-0.02 -0.03,-0.03 -0.01,-0.01 -0.02,-0.01 -0.04,-0.01 -0.01,0 -0.03,0 -0.04,0.01 -0.02,0.01 -0.03,0.02 -0.03,0.03 -0.01,0.02 -0.02,0.03 -0.02,0.05 0,0.02 0.01,0.04 0.02,0.05 0,0.01 0.01,0.02 0.03,0.03 0.01,0.01 0.03,0.01 0.04,0.01 0.02,0 0.03,0 0.04,-0.01 0.01,0 0.03,-0.01 0.03,-0.03l0.06 0.03c-0.01,0.02 -0.03,0.04 -0.05,0.05 -0.02,0.01 -0.05,0.02 -0.08,0.02z"/>
   <path class="fil1" d="M5.27 2.95l0 -0.06 0 -0.01 0 -0.11c0,-0.02 -0.01,-0.03 -0.02,-0.04 -0.01,-0.02 -0.03,-0.02 -0.05,-0.02 -0.02,0 -0.03,0 -0.05,0.01 -0.02,0 -0.03,0.01 -0.04,0.02l-0.03 -0.05c0.02,-0.01 0.04,-0.02 0.06,-0.03 0.02,0 0.04,-0.01 0.07,-0.01 0.04,0 0.07,0.01 0.09,0.03 0.03,0.02 0.04,0.05 0.04,0.1l0 0.17 -0.07 0zm-0.09 0c-0.02,0 -0.04,0 -0.05,-0.01 -0.02,-0.01 -0.03,-0.02 -0.04,-0.03 -0.01,-0.02 -0.02,-0.03 -0.02,-0.05 0,-0.01 0.01,-0.03 0.02,-0.04 0,-0.01 0.02,-0.02 0.03,-0.03 0.02,-0.01 0.05,-0.01 0.08,-0.01l0.08 0 0 0.04 -0.08 0c-0.02,0 -0.04,0.01 -0.05,0.01 0,0.01 -0.01,0.02 -0.01,0.03 0,0.01 0.01,0.02 0.02,0.03 0.01,0.01 0.02,0.01 0.04,0.01 0.01,0 0.03,0 0.04,-0.01 0.01,-0.01 0.02,-0.02 0.03,-0.03l0.01 0.04c-0.01,0.01 -0.02,0.03 -0.03,0.04 -0.02,0.01 -0.04,0.01 -0.07,0.01z"/>
   <path class="fil1" d="M5.59 2.65c0.02,0 0.04,0.01 0.06,0.02 0.02,0 0.03,0.02 0.04,0.04 0.02,0.02 0.02,0.04 0.02,0.07l0 0.17 -0.07 0 0 -0.16c0,-0.03 0,-0.05 -0.02,-0.06 -0.01,-0.01 -0.02,-0.02 -0.05,-0.02 -0.01,0 -0.03,0.01 -0.04,0.01 -0.01,0.01 -0.02,0.02 -0.03,0.03 0,0.01 -0.01,0.03 -0.01,0.05l0 0.15 -0.06 0 0 -0.29 0.06 0 0 0.07 -0.01 -0.02c0.01,-0.02 0.02,-0.03 0.04,-0.04 0.02,-0.01 0.04,-0.02 0.07,-0.02z"/>
   <path class="fil1" d="M6.06 2.95c-0.04,0 -0.06,-0.01 -0.08,-0.02 -0.02,-0.02 -0.02,-0.05 -0.02,-0.08l0 -0.26 0.06 0 0 0.26c0,0.01 0.01,0.03 0.01,0.03 0.01,0.01 0.02,0.01 0.03,0.01 0.02,0 0.03,0 0.04,-0.01l0.02 0.05c-0.01,0.01 -0.02,0.01 -0.03,0.02 -0.01,0 -0.02,0 -0.03,0zm-0.15 -0.24l0 -0.05 0.19 0 0 0.05 -0.19 0z"/>
   <path class="fil1" d="M6.18 2.95l0 -0.29 0.06 0 0 0.08 -0.01 -0.03c0.01,-0.02 0.03,-0.03 0.05,-0.04 0.01,-0.01 0.04,-0.02 0.06,-0.02l0 0.07c0,0 0,0 0,0 -0.01,0 -0.01,0 -0.01,0 -0.03,0 -0.05,0 -0.06,0.02 -0.02,0.01 -0.02,0.04 -0.02,0.07l0 0.14 -0.07 0z"/>
   <path class="fil1" d="M6.53 2.95c-0.03,0 -0.05,0 -0.07,-0.01 -0.02,-0.01 -0.03,-0.03 -0.04,-0.05 -0.01,-0.02 -0.02,-0.04 -0.02,-0.07l0 -0.16 0.07 0 0 0.15c0,0.03 0.01,0.05 0.02,0.06 0.01,0.01 0.03,0.02 0.05,0.02 0.02,0 0.03,0 0.04,-0.01 0.01,-0.01 0.02,-0.02 0.03,-0.03 0.01,-0.01 0.01,-0.03 0.01,-0.05l0 -0.14 0.07 0 0 0.29 -0.07 0 0 -0.08 0.01 0.02c-0.01,0.02 -0.02,0.03 -0.04,0.04 -0.02,0.01 -0.04,0.02 -0.06,0.02z"/>
   <path class="fil1" d="M6.87 2.95c-0.03,0 -0.05,0 -0.07,-0.01 -0.03,-0.01 -0.04,-0.01 -0.06,-0.02l0.03 -0.05c0.01,0 0.03,0.01 0.05,0.02 0.01,0 0.03,0 0.05,0 0.02,0 0.04,0 0.05,0 0.01,-0.01 0.01,-0.02 0.01,-0.03 0,-0.01 0,-0.01 -0.01,-0.02 -0.01,0 -0.01,0 -0.02,-0.01 -0.02,0 -0.03,0 -0.04,0 -0.01,0 -0.03,-0.01 -0.04,-0.01 -0.01,0 -0.02,-0.01 -0.03,-0.01 -0.01,-0.01 -0.02,-0.02 -0.03,-0.03 -0.01,-0.01 -0.01,-0.02 -0.01,-0.04 0,-0.02 0.01,-0.03 0.02,-0.04 0.01,-0.02 0.02,-0.03 0.04,-0.04 0.02,0 0.04,-0.01 0.07,-0.01 0.02,0 0.04,0 0.06,0.01 0.02,0 0.03,0.01 0.05,0.02l-0.03 0.05c-0.01,-0.01 -0.03,-0.01 -0.04,-0.02 -0.01,0 -0.03,0 -0.04,0 -0.02,0 -0.04,0 -0.05,0.01 -0.01,0 -0.01,0.01 -0.01,0.02 0,0.01 0,0.02 0.01,0.02 0,0 0.01,0.01 0.02,0.01 0.01,0 0.02,0 0.04,0.01 0.01,0 0.02,0 0.04,0 0.01,0.01 0.02,0.01 0.03,0.02 0.01,0 0.02,0.01 0.03,0.02 0,0.01 0.01,0.02 0.01,0.04 0,0.02 -0.01,0.03 -0.02,0.05 -0.01,0.01 -0.03,0.02 -0.04,0.03 -0.02,0.01 -0.05,0.01 -0.07,0.01z"/>
   <path class="fil1" d="M7.16 2.95c-0.03,0 -0.05,-0.01 -0.07,-0.02 -0.02,-0.02 -0.03,-0.05 -0.03,-0.08l0 -0.26 0.07 0 0 0.26c0,0.01 0.01,0.03 0.01,0.03 0.01,0.01 0.02,0.01 0.03,0.01 0.02,0 0.03,0 0.04,-0.01l0.02 0.05c-0.01,0.01 -0.02,0.01 -0.03,0.02 -0.01,0 -0.02,0 -0.04,0zm-0.14 -0.24l0 -0.05 0.19 0 0 0.05 -0.19 0z"/>
   <rect class="fil2" x="0.26" y="0.43" width="8.03" height="2.7"/>
  </g>
  <rect class="fil2" width="8.56" height="3.57"/>
 </g>
</svg>
